# xmcd
#
# Track frame offsets: 
#        150
#        23121
#        49402
#        70149
#        96130
#        113924
#        128366
#        144903
#        177157
#
# Disc length: 2779 seconds
#
# Revision: 0
# Processed by: cddbd v1.5.2PL0 Copyright (c) Steve Scherf et al.
# Submitted via: ExactAudioCopyFreeDBPlugin 1.0
#
DISCID=720ad909
DTITLE=Häder.Neander.Thore - Live im Schloss
DYEAR=2015
DGENRE=Blues-Rock
TTITLE0=Sommerrestabendwind
TTITLE1=Nervös
TTITLE2=Struwwelpeter Blues
TTITLE3=Rote Rosen
TTITLE4=Der Fliegende Robert
TTITLE5=Heiss wie Eis
TTITLE6=Mal ohne Worte
TTITLE7=Ein Dutzend Tränen
TTITLE8=Schieb es auf
EXTD=
EXTT0=
EXTT1=
EXTT2=
EXTT3=
EXTT4=
EXTT5=
EXTT6=
EXTT7=
EXTT8=
PLAYORDER=
